<?xml version="1.0" encoding="UTF-8" standalone="no"?>
<!-- Created with Inkscape (http://www.inkscape.org/) -->

<svg
   width="137.56291mm"
   height="73.463448mm"
   viewBox="0 0 137.56291 73.463448"
   version="1.1"
   id="svg1"
   xmlns="http://www.w3.org/2000/svg"
   xmlns:svg="http://www.w3.org/2000/svg">
  <defs
     id="defs1">
    <filter
       style="color-interpolation-filters:sRGB"
       id="filter4"
       x="-0.083147171"
       y="-0.15464861"
       width="1.1662943"
       height="1.3092972">
      <feGaussianBlur
         stdDeviation="4.801133"
         id="feGaussianBlur4" />
    </filter>
  </defs>
  <g
     id="layer1"
     transform="translate(-11.22173,-10.622371)">
    <path
       style="fill:#ffdd51;fill-opacity:1;stroke:none;stroke-width:5.54794;stroke-linejoin:round;paint-order:stroke fill markers"
       d="m 76.656315,83.898812 c -8.44953,-0.71364 -16.46217,-4.54247 -22.69614,-10.8453 -2.22378,-2.24835 -5.71135,-6.827 -6.27732,-8.2412 -0.0156,-0.039 -3.26976,0.92066 -7.23142,2.13262 -3.961662,1.21196 -10.448571,3.01963 -14.41535,4.01705 -15.648649,3.93474 -18.8980282,3.16427 -9.756804,-2.31346 3.330289,-1.99562 14.589403,-7.51434 21.662641,-10.61806 l 6.172963,-2.70868 -0.25515,-1.13707 c -0.14034,-0.62538 -0.25276,-3.8833 -0.24983,-7.2398 0.006,-6.933217 0.5458,-9.535917 3.11418,-15.016687 5.60895,-11.9692 17.19746,-20.151263 29.9883,-21.173234 11.33215,-0.9054234 21.50445,2.838674 29.399605,10.821044 2.21441,2.23887 5.83186,6.98899 6.27216,8.23603 0.0128,0.0362 3.57378,-1.00798 7.91336,-2.32035 9.62147,-2.90972 18.23908,-5.10235 23.15074,-5.89039 6.39019,-1.02525 6.99399,-0.0856 2.06574,3.21482 -3.56871,2.38993 -14.29042,7.79248 -23.38374,11.78281 l -6.17297,2.70881 0.25516,1.13707 c 0.14033,0.62538 0.25275,3.883297 0.24982,7.239797 -0.005,5.25109 -0.12384,6.51473 -0.85458,9.05493 -1.05667,3.67318 -3.17601,8.23842 -5.26046,11.33149 -2.03789,3.02397 -6.53088,7.51697 -9.55486,9.55487 -4.963565,3.345 -11.435025,5.75359 -16.502845,6.14213 -1.42397,0.10918 -3.00514,0.24397 -3.5137,0.29955 -0.50856,0.0556 -2.36234,-0.0204 -4.1195,-0.16879 z m 10.17666,-10.68197 c 9.18678,-2.34958 16.755595,-9.91841 19.105175,-19.10519 0.87011,-3.40209 1.05982,-11.080207 0.26574,-10.755407 -11.856965,4.849847 -38.648535,14.823387 -47.342455,17.623907 -0.76285,0.24573 -1.38699,0.58537 -1.38699,0.75475 0,0.16938 0.64324,1.12172 1.42942,2.11631 3.49169,4.41732 8.85466,7.95053 14.18971,9.34839 3.74935,0.98238 9.93538,0.99014 13.7394,0.0173 z m -25.35078,-24.96081 c 11.43047,-4.52029 32.75072,-12.358917 39.728545,-14.606637 0.76284,-0.24573 1.38699,-0.58537 1.38699,-0.75475 0,-0.16938 -0.64324,-1.12172 -1.42942,-2.11631 -3.541095,-4.47983 -8.886345,-7.97201 -14.335335,-9.36563 -3.86413,-0.98828 -9.72964,-0.98828 -13.59377,0 -9.18678,2.34958 -16.7556,9.91841 -19.10519,19.10519 -0.87011,3.402087 -1.05981,11.080207 -0.26574,10.755407 0.25428,-0.10401 3.68055,-1.46178 7.61392,-3.01727 z"
       id="path17" />
    <path
       id="path4"
       style="fill:#ffcc00;stroke:none;stroke-width:5.54794;stroke-linejoin:round;paint-order:stroke fill markers;filter:url(#filter4)"
       d="m 200.98828,90.892578 c -9.03817,0.172195 -17.88149,3.972285 -24.38094,10.225842 -4.8336,4.56964 -8.33415,10.46325 -10.3339,16.78783 -1.30245,4.61061 -1.00756,9.45894 -0.95413,14.19437 0.0659,1.234 0.026,2.49074 0.35842,3.69235 -8.97678,3.88773 -17.87537,7.98037 -26.49536,12.61224 -2.02099,1.20465 -4.14881,2.34909 -5.7946,4.05944 -0.61874,0.53577 -0.76326,1.72164 0.14739,2.04121 1.7403,0.52789 3.58852,0.048 5.3457,-0.16992 7.56612,-1.37908 14.97173,-3.50216 22.35059,-5.64277 2.78041,-0.81702 5.54463,-1.69091 8.333,-2.48223 1.68813,2.83712 3.79964,5.41133 6.03559,7.83274 6.34683,6.55765 15.13914,10.78416 24.28807,11.24518 1.84189,0.19131 3.68547,0.0735 5.52072,-0.1217 6.01296,-0.34843 11.79519,-2.58049 16.89976,-5.69841 3.54153,-2.25565 6.53924,-5.27148 9.24805,-8.45508 2.74722,-3.38359 4.618,-7.39129 6.1248,-11.45492 0.96911,-2.5911 1.48156,-5.33995 1.45652,-8.10871 0.0231,-3.4452 0.10467,-6.90726 -0.23562,-10.33871 -0.45658,-0.75767 0.25791,-0.92372 0.84708,-1.15307 8.83423,-3.84025 17.61555,-7.84837 26.01997,-12.56725 1.88606,-1.13231 3.85413,-2.25286 5.34194,-3.90078 0.58314,-0.56111 0.4596,-1.66966 -0.40039,-1.86523 -1.83894,-0.40738 -3.73658,0.0604 -5.57012,0.30533 -8.15861,1.49122 -16.12607,3.85156 -24.06809,6.20733 -2.08251,0.61377 -4.13813,1.25597 -6.21921,1.835 -1.65134,-2.77754 -3.7257,-5.28994 -5.89442,-7.67743 -5.63194,-5.898675 -13.22372,-9.949768 -21.33041,-11.036333 -2.19743,-0.315918 -4.42183,-0.425908 -6.64041,-0.366319 z m 1.22266,11.089842 c 3.48586,-0.0171 7.07025,0.51275 10.29864,1.98055 4.65325,2.034 8.80678,5.33709 11.61151,9.59172 -2.00192,0.82826 -4.10827,1.39132 -6.13603,2.15962 -14.0212,4.95379 -27.95086,10.17185 -41.75654,15.69975 -0.33637,-2.62961 -0.093,-5.25721 0.20393,-7.86652 0.83238,-5.88275 4.09337,-11.27282 8.50896,-15.18035 3.36557,-2.94636 7.47069,-5.08486 11.82909,-5.92346 1.81703,-0.33434 3.61534,-0.45153 5.44044,-0.46131 z m 25.99218,22.83985 c 0.32814,2.86676 0.0695,5.777 -0.33613,8.62379 -1.35037,7.26727 -6.26769,13.7732 -12.68869,17.46399 -3.4073,1.98126 -7.28747,3.13378 -11.23299,3.24229 -3.68946,0.14524 -7.55533,-0.0726 -11.06794,-1.51 -4.38502,-1.71491 -8.37117,-4.60921 -11.28893,-8.22253 -0.42714,-0.57482 -0.98413,-1.18925 -1.26032,-1.79676 2.23431,-0.889 4.56154,-1.54059 6.81359,-2.39061 13.1314,-4.65833 26.18116,-9.551 39.13851,-14.6742 0.63007,-0.22786 1.33676,-0.59399 1.9229,-0.73597 z" />
  </g>
</svg>
